# xmcd
#
# Track frame offsets: 
#        150
#        14298
#        29908
#        45610
#        63990
#        80718
#        96154
#        111377
#        133633
#        149949
#        168382
#
# Disc length: 2601 seconds
#
# Revision: 2
# Processed by: cddbd v1.5.2PL0 Copyright (c) Steve Scherf et al.
# Submitted via: ExactAudioCopy v1.1
#
DISCID=a50a270b
DTITLE=Luz Casal - Sencilla alegria
DYEAR=2004
DGENRE=Latin
TTITLE0=Un nuevo dia brillará
TTITLE1=Mi memoria
TTITLE2=Octubre
TTITLE3=Tiempo al tiempo
TTITLE4=Ecos
TTITLE5=Agua de marte
TTITLE6=Al vuelo
TTITLE7=No te vayas
TTITLE8=Para un cínico
TTITLE9=Noches blancas
TTITLE10=Negra sombra
EXTD=
EXTT0=
EXTT1=
EXTT2=
EXTT3=
EXTT4=
EXTT5=
EXTT6=
EXTT7=
EXTT8=
EXTT9=
EXTT10=
PLAYORDER=
